STARTFONT 2.1
FONT -Bitstream-Swiss 742-Medium-R-Normal--13-100-72-72-P-75-ISO8859-1
SIZE 10 72 72
FONTBOUNDINGBOX 12 13 0 -3

STARTPROPERTIES 27
FONTNAME_REGISTRY ""
FAMILY_NAME "Swiss 742"
FOUNDRY "Bitstream"
WEIGHT_NAME "Medium"
SETWIDTH_NAME "Normal"
SLANT "R"
ADD_STYLE_NAME "Sans Serif"
PIXEL_SIZE 13
POINT_SIZE 100
RESOLUTION_X 72
RESOLUTION_Y 72
SPACING "P"
AVERAGE_WIDTH 75
CHARSET_REGISTRY "ISO8859"
CHARSET_ENCODING "1"
CAP_HEIGHT 7
X_HEIGHT 5
CHARSET_COLLECTIONS "ISO8859-1"
FULL_NAME "Swiss742"
COPYRIGHT "Copyright 1989 by Bitstream, Inc. All rights reserved."
NOTICE "Swiss 742 is a registered trademark of Bitstream, Inc."
NOTICE "This Font is licensed for use on Hewlett-Packard Equipment only."
WEIGHT 10
QUAD_WIDTH 7
DEFAULT_CHAR 0
FONT_DESCENT 3
FONT_ASCENT 10
ENDPROPERTIES

CHARS 191

STARTCHAR PrintableSpace
ENCODING 32
SWIDTH 277 0
DWIDTH 3 0
BBX 1 1 0 0
BITMAP
00
ENDCHAR

STARTCHAR Exclamation
ENCODING 33
SWIDTH 370 0
DWIDTH 4 0
BBX 1 9 2 -1
BITMAP
80
80
80
80
80
80
00
80
80
ENDCHAR

STARTCHAR NeutrlDblQuote
ENCODING 34
SWIDTH 300 0
DWIDTH 4 0
BBX 3 3 1 5
BITMAP
A0
A0
A0
ENDCHAR

STARTCHAR NumberSign
ENCODING 35
SWIDTH 769 0
DWIDTH 6 0
BBX 5 9 1 -1
BITMAP
50
50
50
F8
50
F8
50
50
50
ENDCHAR

STARTCHAR DollarSign
ENCODING 36
SWIDTH 553 0
DWIDTH 6 0
BBX 5 11 1 -2
BITMAP
20
20
70
A8
A0
70
28
A8
70
20
20
ENDCHAR

STARTCHAR PerCentSign
ENCODING 37
SWIDTH 984 0
DWIDTH 10 0
BBX 9 9 1 -1
BITMAP
6200
9200
9400
6400
0800
1300
1480
2480
2300
ENDCHAR

STARTCHAR Ampersand
ENCODING 38
SWIDTH 606 0
DWIDTH 6 0
BBX 5 9 1 -1
BITMAP
70
80
80
90
78
90
90
90
70
ENDCHAR

STARTCHAR SingleCloseQut
ENCODING 39
SWIDTH 255 0
DWIDTH 3 0
BBX 2 3 1 5
BITMAP
40
80
80
ENDCHAR

STARTCHAR OpenParen
ENCODING 40
SWIDTH 315 0
DWIDTH 4 0
BBX 3 11 1 -2
BITMAP
20
40
80
80
80
80
80
80
80
40
20
ENDCHAR

STARTCHAR CloseParen
ENCODING 41
SWIDTH 315 0
DWIDTH 4 0
BBX 3 11 1 -2
BITMAP
80
40
20
20
20
20
20
20
20
40
80
ENDCHAR

STARTCHAR Asterisk
ENCODING 42
SWIDTH 528 0
DWIDTH 8 0
BBX 5 5 2 1
BITMAP
20
A8
70
A8
20
ENDCHAR

STARTCHAR PlusSign
ENCODING 43
SWIDTH 833 0
DWIDTH 8 0
BBX 5 5 2 1
BITMAP
20
20
F8
20
20
ENDCHAR

STARTCHAR Comma
ENCODING 44
SWIDTH 277 0
DWIDTH 4 0
BBX 2 3 1 -2
BITMAP
40
40
80
ENDCHAR

STARTCHAR Hyphen
ENCODING 45
SWIDTH 331 0
DWIDTH 8 0
BBX 5 1 2 3
BITMAP
F8
ENDCHAR

STARTCHAR Period
ENCODING 46
SWIDTH 277 0
DWIDTH 4 0
BBX 1 1 2 0
BITMAP
80
ENDCHAR

STARTCHAR Slash
ENCODING 47
SWIDTH 370 0
DWIDTH 6 0
BBX 5 11 1 -2
BITMAP
08
08
10
10
20
20
20
40
40
80
80
ENDCHAR

STARTCHAR Zero
ENCODING 48
SWIDTH 553 0
DWIDTH 6 0
BBX 5 7 1 0
BITMAP
70
88
88
88
88
88
70
ENDCHAR

STARTCHAR One
ENCODING 49
SWIDTH 553 0
DWIDTH 6 0
BBX 3 7 1 0
BITMAP
60
A0
20
20
20
20
20
ENDCHAR

STARTCHAR Two
ENCODING 50
SWIDTH 553 0
DWIDTH 6 0
BBX 5 7 1 0
BITMAP
70
88
08
10
20
40
F8
ENDCHAR

STARTCHAR Three
ENCODING 51
SWIDTH 553 0
DWIDTH 6 0
BBX 5 7 1 0
BITMAP
70
88
08
30
08
88
70
ENDCHAR

STARTCHAR Four
ENCODING 52
SWIDTH 553 0
DWIDTH 6 0
BBX 5 7 1 0
BITMAP
10
30
50
90
F8
10
10
ENDCHAR

STARTCHAR Five
ENCODING 53
SWIDTH 553 0
DWIDTH 6 0
BBX 5 7 1 0
BITMAP
F8
80
F0
88
08
88
70
ENDCHAR

STARTCHAR Six
ENCODING 54
SWIDTH 553 0
DWIDTH 6 0
BBX 5 7 1 0
BITMAP
70
88
80
F0
88
88
70
ENDCHAR

STARTCHAR Seven
ENCODING 55
SWIDTH 553 0
DWIDTH 6 0
BBX 5 7 1 0
BITMAP
F8
08
10
20
20
40
40
ENDCHAR

STARTCHAR Eight
ENCODING 56
SWIDTH 553 0
DWIDTH 6 0
BBX 5 7 1 0
BITMAP
70
88
88
70
88
88
70
ENDCHAR

STARTCHAR Nine
ENCODING 57
SWIDTH 553 0
DWIDTH 6 0
BBX 5 7 1 0
BITMAP
70
88
88
78
08
88
70
ENDCHAR

STARTCHAR Colon
ENCODING 58
SWIDTH 370 0
DWIDTH 4 0
BBX 1 5 2 0
BITMAP
80
00
00
00
80
ENDCHAR

STARTCHAR Simicolon
ENCODING 59
SWIDTH 370 0
DWIDTH 4 0
BBX 2 7 1 -2
BITMAP
40
00
00
00
40
40
80
ENDCHAR

STARTCHAR LessThanSign
ENCODING 60
SWIDTH 833 0
DWIDTH 8 0
BBX 5 5 2 1
BITMAP
08
30
C0
30
08
ENDCHAR

STARTCHAR EqualsSign
ENCODING 61
SWIDTH 833 0
DWIDTH 8 0
BBX 5 3 2 2
BITMAP
F8
00
F8
ENDCHAR

STARTCHAR GreatrThanSign
ENCODING 62
SWIDTH 833 0
DWIDTH 8 0
BBX 5 5 2 1
BITMAP
80
60
18
60
80
ENDCHAR

STARTCHAR QuestionMark
ENCODING 63
SWIDTH 491 0
DWIDTH 5 0
BBX 4 9 1 -1
BITMAP
60
90
10
10
20
40
00
40
40
ENDCHAR

STARTCHAR CommerclAtSign
ENCODING 64
SWIDTH 1000 0
DWIDTH 10 0
BBX 6 9 2 -1
BITMAP
38
44
9C
A4
A4
A4
9C
40
3C
ENDCHAR

STARTCHAR A
ENCODING 65
SWIDTH 713 0
DWIDTH 8 0
BBX 7 7 1 0
BITMAP
10
10
28
28
7C
44
82
ENDCHAR

STARTCHAR B
ENCODING 66
SWIDTH 641 0
DWIDTH 6 0
BBX 5 7 1 0
BITMAP
F0
88
88
F0
88
88
F0
ENDCHAR

STARTCHAR C
ENCODING 67
SWIDTH 662 0
DWIDTH 7 0
BBX 6 7 1 0
BITMAP
78
84
80
80
80
84
78
ENDCHAR

STARTCHAR D
ENCODING 68
SWIDTH 718 0
DWIDTH 7 0
BBX 6 7 1 0
BITMAP
F8
84
84
84
84
84
F8
ENDCHAR

STARTCHAR E
ENCODING 69
SWIDTH 604 0
DWIDTH 6 0
BBX 5 7 1 0
BITMAP
F8
80
80
F8
80
80
F8
ENDCHAR

STARTCHAR F
ENCODING 70
SWIDTH 550 0
DWIDTH 5 0
BBX 4 7 1 0
BITMAP
F0
80
80
F0
80
80
80
ENDCHAR

STARTCHAR G
ENCODING 71
SWIDTH 744 0
DWIDTH 7 0
BBX 6 7 1 0
BITMAP
78
84
80
9C
84
84
78
ENDCHAR

STARTCHAR H
ENCODING 72
SWIDTH 714 0
DWIDTH 7 0
BBX 6 7 1 0
BITMAP
84
84
84
FC
84
84
84
ENDCHAR

STARTCHAR I
ENCODING 73
SWIDTH 263 0
DWIDTH 2 0
BBX 1 7 1 0
BITMAP
80
80
80
80
80
80
80
ENDCHAR

STARTCHAR J
ENCODING 74
SWIDTH 528 0
DWIDTH 5 0
BBX 4 7 1 0
BITMAP
10
10
10
10
10
90
60
ENDCHAR

STARTCHAR K
ENCODING 75
SWIDTH 650 0
DWIDTH 6 0
BBX 5 7 1 0
BITMAP
88
90
A0
C0
A0
90
88
ENDCHAR

STARTCHAR L
ENCODING 76
SWIDTH 535 0
DWIDTH 5 0
BBX 4 7 1 0
BITMAP
80
80
80
80
80
80
F0
ENDCHAR

STARTCHAR M
ENCODING 77
SWIDTH 909 0
DWIDTH 8 0
BBX 7 7 1 0
BITMAP
82
C6
C6
AA
AA
92
92
ENDCHAR

STARTCHAR N
ENCODING 78
SWIDTH 734 0
DWIDTH 7 0
BBX 6 7 1 0
BITMAP
84
C4
A4
94
94
8C
84
ENDCHAR

STARTCHAR O
ENCODING 79
SWIDTH 771 0
DWIDTH 7 0
BBX 6 7 1 0
BITMAP
78
84
84
84
84
84
78
ENDCHAR

STARTCHAR P
ENCODING 80
SWIDTH 603 0
DWIDTH 6 0
BBX 5 7 1 0
BITMAP
F0
88
88
F0
80
80
80
ENDCHAR

STARTCHAR Q
ENCODING 81
SWIDTH 771 0
DWIDTH 8 0
BBX 6 8 1 -1
BITMAP
78
84
84
84
84
94
78
04
ENDCHAR

STARTCHAR R
ENCODING 82
SWIDTH 648 0
DWIDTH 6 0
BBX 5 7 1 0
BITMAP
F0
88
88
F0
88
88
88
ENDCHAR

STARTCHAR S
ENCODING 83
SWIDTH 656 0
DWIDTH 6 0
BBX 5 7 1 0
BITMAP
70
88
80
70
08
88
70
ENDCHAR

STARTCHAR T
ENCODING 84
SWIDTH 603 0
DWIDTH 6 0
BBX 5 7 1 0
BITMAP
F8
20
20
20
20
20
20
ENDCHAR

STARTCHAR U
ENCODING 85
SWIDTH 728 0
DWIDTH 7 0
BBX 6 7 1 0
BITMAP
84
84
84
84
84
84
78
ENDCHAR

STARTCHAR V
ENCODING 86
SWIDTH 657 0
DWIDTH 8 0
BBX 7 7 1 0
BITMAP
82
44
44
28
28
10
10
ENDCHAR

STARTCHAR W
ENCODING 87
SWIDTH 977 0
DWIDTH 10 0
BBX 9 7 1 0
BITMAP
8880
8880
4900
5500
5500
2200
2200
ENDCHAR

STARTCHAR X
ENCODING 88
SWIDTH 700 0
DWIDTH 8 0
BBX 7 7 1 0
BITMAP
82
44
28
10
28
44
82
ENDCHAR

STARTCHAR Y
ENCODING 89
SWIDTH 657 0
DWIDTH 8 0
BBX 7 7 1 0
BITMAP
82
44
28
10
10
10
10
ENDCHAR

STARTCHAR Z
ENCODING 90
SWIDTH 602 0
DWIDTH 6 0
BBX 5 7 1 0
BITMAP
F8
08
10
20
40
80
F8
ENDCHAR

STARTCHAR OpenBracket
ENCODING 91
SWIDTH 315 0
DWIDTH 4 0
BBX 3 11 1 -2
BITMAP
E0
80
80
80
80
80
80
80
80
80
E0
ENDCHAR

STARTCHAR BackSlash
ENCODING 92
SWIDTH 370 0
DWIDTH 6 0
BBX 5 11 1 -2
BITMAP
80
80
40
40
20
20
20
10
10
08
08
ENDCHAR

STARTCHAR CloseBracket
ENCODING 93
SWIDTH 315 0
DWIDTH 4 0
BBX 3 11 1 -2
BITMAP
E0
20
20
20
20
20
20
20
20
20
E0
ENDCHAR

STARTCHAR Circumflex
ENCODING 94
SWIDTH 1000 0
DWIDTH 10 0
BBX 6 3 2 4
BITMAP
30
48
84
ENDCHAR

STARTCHAR Underscore
ENCODING 95
SWIDTH 500 0
DWIDTH 5 0
BBX 5 1 0 -1
BITMAP
F8
ENDCHAR

STARTCHAR SingleOpenQuot
ENCODING 96
SWIDTH 255 0
DWIDTH 3 0
BBX 2 3 1 5
BITMAP
40
40
80
ENDCHAR

STARTCHAR a
ENCODING 97
SWIDTH 531 0
DWIDTH 6 0
BBX 5 5 1 0
BITMAP
70
08
78
88
78
ENDCHAR

STARTCHAR b
ENCODING 98
SWIDTH 602 0
DWIDTH 6 0
BBX 5 7 1 0
BITMAP
80
80
F0
88
88
88
F0
ENDCHAR

STARTCHAR c
ENCODING 99
SWIDTH 516 0
DWIDTH 6 0
BBX 5 5 1 0
BITMAP
70
88
80
80
78
ENDCHAR

STARTCHAR d
ENCODING 100
SWIDTH 602 0
DWIDTH 6 0
BBX 5 7 1 0
BITMAP
08
08
78
88
88
88
78
ENDCHAR

STARTCHAR e
ENCODING 101
SWIDTH 551 0
DWIDTH 6 0
BBX 5 5 1 0
BITMAP
70
88
F8
80
78
ENDCHAR

STARTCHAR f
ENCODING 102
SWIDTH 308 0
DWIDTH 4 0
BBX 3 7 1 0
BITMAP
20
40
E0
40
40
40
40
ENDCHAR

STARTCHAR g
ENCODING 103
SWIDTH 593 0
DWIDTH 6 0
BBX 5 7 1 -2
BITMAP
78
88
88
88
78
08
70
ENDCHAR

STARTCHAR h
ENCODING 104
SWIDTH 588 0
DWIDTH 6 0
BBX 5 7 1 0
BITMAP
80
80
B0
C8
88
88
88
ENDCHAR

STARTCHAR i
ENCODING 105
SWIDTH 250 0
DWIDTH 2 0
BBX 1 7 1 0
BITMAP
80
00
80
80
80
80
80
ENDCHAR

STARTCHAR j
ENCODING 106
SWIDTH 250 0
DWIDTH 2 0
BBX 2 9 0 -2
BITMAP
40
00
40
40
40
40
40
40
80
ENDCHAR

STARTCHAR k
ENCODING 107
SWIDTH 492 0
DWIDTH 5 0
BBX 4 7 1 0
BITMAP
80
80
90
A0
C0
A0
90
ENDCHAR

STARTCHAR l
ENCODING 108
SWIDTH 250 0
DWIDTH 2 0
BBX 1 7 1 0
BITMAP
80
80
80
80
80
80
80
ENDCHAR

STARTCHAR m
ENCODING 109
SWIDTH 913 0
DWIDTH 8 0
BBX 7 5 1 0
BITMAP
EC
92
92
92
92
ENDCHAR

STARTCHAR n
ENCODING 110
SWIDTH 588 0
DWIDTH 6 0
BBX 5 5 1 0
BITMAP
B0
C8
88
88
88
ENDCHAR

STARTCHAR o
ENCODING 111
SWIDTH 602 0
DWIDTH 6 0
BBX 5 5 1 0
BITMAP
70
88
88
88
70
ENDCHAR

STARTCHAR p
ENCODING 112
SWIDTH 602 0
DWIDTH 6 0
BBX 5 7 1 -2
BITMAP
F0
88
88
88
F0
80
80
ENDCHAR

STARTCHAR q
ENCODING 113
SWIDTH 602 0
DWIDTH 6 0
BBX 5 7 1 -2
BITMAP
78
88
88
88
78
08
08
ENDCHAR

STARTCHAR r
ENCODING 114
SWIDTH 370 0
DWIDTH 4 0
BBX 3 5 1 0
BITMAP
A0
C0
80
80
80
ENDCHAR

STARTCHAR s
ENCODING 115
SWIDTH 491 0
DWIDTH 5 0
BBX 4 5 1 0
BITMAP
70
80
60
10
E0
ENDCHAR

STARTCHAR t
ENCODING 116
SWIDTH 317 0
DWIDTH 4 0
BBX 3 7 1 0
BITMAP
40
40
E0
40
40
40
20
ENDCHAR

STARTCHAR u
ENCODING 117
SWIDTH 588 0
DWIDTH 6 0
BBX 5 5 1 0
BITMAP
88
88
88
98
68
ENDCHAR

STARTCHAR v
ENCODING 118
SWIDTH 543 0
DWIDTH 6 0
BBX 5 5 1 0
BITMAP
88
50
50
20
20
ENDCHAR

STARTCHAR w
ENCODING 119
SWIDTH 810 0
DWIDTH 8 0
BBX 7 5 1 0
BITMAP
92
92
AA
44
44
ENDCHAR

STARTCHAR x
ENCODING 120
SWIDTH 546 0
DWIDTH 6 0
BBX 5 5 1 0
BITMAP
88
50
20
50
88
ENDCHAR

STARTCHAR y
ENCODING 121
SWIDTH 543 0
DWIDTH 6 0
BBX 5 7 1 -2
BITMAP
88
88
50
50
20
20
40
ENDCHAR

STARTCHAR z
ENCODING 122
SWIDTH 439 0
DWIDTH 5 0
BBX 4 5 1 0
BITMAP
F0
20
40
80
F0
ENDCHAR

STARTCHAR OpenBrace
ENCODING 123
SWIDTH 500 0
DWIDTH 5 0
BBX 4 11 1 -2
BITMAP
30
40
40
40
40
80
40
40
40
40
30
ENDCHAR

STARTCHAR LongVertMark
ENCODING 124
SWIDTH 500 0
DWIDTH 4 0
BBX 1 9 2 -1
BITMAP
80
80
80
80
80
80
80
80
80
ENDCHAR

STARTCHAR CloseBrace
ENCODING 125
SWIDTH 500 0
DWIDTH 5 0
BBX 4 11 1 -2
BITMAP
C0
20
20
20
20
10
20
20
20
20
C0
ENDCHAR

STARTCHAR OneWavyLine
ENCODING 126
SWIDTH 833 0
DWIDTH 10 0
BBX 7 4 2 1
BITMAP
20
72
9C
08
ENDCHAR

STARTCHAR MediumShading
ENCODING 127
SWIDTH 1000 0
DWIDTH 12 0
BBX 12 13 0 -3
BITMAP
CCC0
CCC0
3330
3330
CCC0
CCC0
3330
3330
CCC0
CCC0
3330
3330
CCC0
ENDCHAR

STARTCHAR InvExclamation
ENCODING 161
SWIDTH 370 0
DWIDTH 4 0
BBX 1 9 2 -1
BITMAP
80
80
00
80
80
80
80
80
80
ENDCHAR

STARTCHAR CentSign
ENCODING 162
SWIDTH 553 0
DWIDTH 6 0
BBX 5 9 1 -2
BITMAP
10
10
70
A8
A0
A0
78
40
40
ENDCHAR

STARTCHAR SterlingSign
ENCODING 163
SWIDTH 370 0
DWIDTH 6 0
BBX 5 7 1 0
BITMAP
30
48
F0
40
F0
40
F8
ENDCHAR

STARTCHAR CurrencySymbol
ENCODING 164
SWIDTH 606 0
DWIDTH 7 0
BBX 6 6 1 1
BITMAP
84
78
48
48
78
84
ENDCHAR

STARTCHAR Yensign
ENCODING 165
SWIDTH 606 0
DWIDTH 6 0
BBX 5 7 1 0
BITMAP
88
50
D8
20
F8
20
20
ENDCHAR

STARTCHAR BrokenBar
ENCODING 166
SWIDTH 500 0
DWIDTH 4 0
BBX 1 13 2 -3
BITMAP
00
80
80
80
80
80
00
80
80
80
80
00
00
ENDCHAR

STARTCHAR SectionMark
ENCODING 167
SWIDTH 528 0
DWIDTH 5 0
BBX 4 7 1 0
BITMAP
70
80
60
90
60
10
E0
ENDCHAR

STARTCHAR diaeresisAccnt
ENCODING 168
SWIDTH 500 0
DWIDTH 5 0
BBX 3 1 1 6
BITMAP
A0
ENDCHAR

STARTCHAR CopyrightSign
ENCODING 169
SWIDTH 516 0
DWIDTH 7 0
BBX 6 13 1 -3
BITMAP
00
00
30
48
B4
A4
B4
48
30
00
00
00
00
ENDCHAR

STARTCHAR FemaleOrdinal
ENCODING 170
SWIDTH 370 0
DWIDTH 7 0
BBX 4 7 2 0
BITMAP
60
10
70
90
70
00
F0
ENDCHAR

STARTCHAR DblOpenAnglQut
ENCODING 171
SWIDTH 489 0
DWIDTH 6 0
BBX 5 4 1 1
BITMAP
48
90
90
48
ENDCHAR

STARTCHAR NotSign
ENCODING 172
SWIDTH 331 0
DWIDTH 8 0
BBX 5 13 2 -3
BITMAP
00
00
00
00
00
00
F8
08
08
00
00
00
00
ENDCHAR

STARTCHAR SoftHyphen
ENCODING 173
SWIDTH 331 0
DWIDTH 8 0
BBX 5 13 2 -3
BITMAP
00
00
00
00
00
00
70
00
00
00
00
00
00
ENDCHAR

STARTCHAR RegTradeMark
ENCODING 174
SWIDTH 516 0
DWIDTH 8 0
BBX 7 13 1 -3
BITMAP
00
00
38
44
B2
AA
B2
AA
44
38
00
00
00
ENDCHAR

STARTCHAR Macron
ENCODING 175
SWIDTH 331 0
DWIDTH 8 0
BBX 5 13 2 -3
BITMAP
00
00
F8
00
00
00
00
00
00
00
00
00
00
ENDCHAR

STARTCHAR DegreeSign
ENCODING 176
SWIDTH 329 0
DWIDTH 4 0
BBX 3 3 1 4
BITMAP
40
A0
40
ENDCHAR

STARTCHAR PlusOverMinus
ENCODING 177
SWIDTH 833 0
DWIDTH 8 0
BBX 5 7 2 0
BITMAP
20
20
F8
20
20
00
F8
ENDCHAR

STARTCHAR SuperscriptTwo
ENCODING 178
SWIDTH 864 0
DWIDTH 5 0
BBX 4 13 1 -3
BITMAP
00
00
60
90
20
40
F0
00
00
00
00
00
00
ENDCHAR

STARTCHAR Superscript3
ENCODING 179
SWIDTH 864 0
DWIDTH 5 0
BBX 4 13 1 -3
BITMAP
00
00
E0
10
60
10
E0
00
00
00
00
00
00
ENDCHAR

STARTCHAR acuteAccent
ENCODING 180
SWIDTH 500 0
DWIDTH 5 0
BBX 2 2 2 6
BITMAP
40
80
ENDCHAR

STARTCHAR muGreek
ENCODING 181
SWIDTH 563 0
DWIDTH 7 0
BBX 6 7 1 -2
BITMAP
48
48
48
48
B4
80
80
ENDCHAR

STARTCHAR ParagraphSign
ENCODING 182
SWIDTH 500 0
DWIDTH 7 0
BBX 6 7 1 0
BITMAP
7C
E8
E8
68
28
28
28
ENDCHAR

STARTCHAR middleDot
ENCODING 183
SWIDTH 370 0
DWIDTH 5 0
BBX 1 1 2 3
BITMAP
80
ENDCHAR

STARTCHAR Cedilla
ENCODING 184
SWIDTH 662 0
DWIDTH 7 0
BBX 6 13 1 -3
BITMAP
00
00
00
00
00
00
00
00
00
00
10
08
70
ENDCHAR

STARTCHAR SuperscriptOne
ENCODING 185
SWIDTH 864 0
DWIDTH 4 0
BBX 3 13 1 -3
BITMAP
00
00
40
C0
40
40
40
00
00
00
00
00
00
ENDCHAR

STARTCHAR MaleOrdinal
ENCODING 186
SWIDTH 370 0
DWIDTH 7 0
BBX 4 7 2 0
BITMAP
60
90
90
90
60
00
F0
ENDCHAR

STARTCHAR DblClosAnglQut
ENCODING 187
SWIDTH 489 0
DWIDTH 6 0
BBX 5 4 1 1
BITMAP
90
48
48
90
ENDCHAR

STARTCHAR FracOneFourth
ENCODING 188
SWIDTH 864 0
DWIDTH 10 0
BBX 9 8 1 0
BITMAP
4400
C400
4800
4900
5300
1500
2780
2100
ENDCHAR

STARTCHAR FracOneHalf
ENCODING 189
SWIDTH 864 0
DWIDTH 10 0
BBX 9 8 1 0
BITMAP
4400
C400
4800
4B00
5480
1100
2200
2780
ENDCHAR

STARTCHAR FracThreeFour
ENCODING 190
SWIDTH 864 0
DWIDTH 10 0
BBX 9 8 1 0
BITMAP
C400
2400
4800
2900
D300
1500
2780
2100
ENDCHAR

STARTCHAR InvertQuestion
ENCODING 191
SWIDTH 491 0
DWIDTH 5 0
BBX 4 9 1 -1
BITMAP
20
20
00
20
40
80
80
90
60
ENDCHAR

STARTCHAR Agrave
ENCODING 192
SWIDTH 713 0
DWIDTH 7 0
BBX 7 10 0 0
BITMAP
20
10
00
10
10
28
28
7C
44
82
ENDCHAR

STARTCHAR Aacute
ENCODING 193
SWIDTH 713 0
DWIDTH 7 0
BBX 7 10 0 0
BITMAP
08
10
00
10
10
28
28
7C
44
82
ENDCHAR

STARTCHAR Acircumflex
ENCODING 194
SWIDTH 713 0
DWIDTH 7 0
BBX 7 10 0 0
BITMAP
10
28
00
10
10
28
28
7C
44
82
ENDCHAR

STARTCHAR Atilde
ENCODING 195
SWIDTH 713 0
DWIDTH 7 0
BBX 7 10 0 0
BITMAP
32
4C
00
10
10
28
28
7C
44
82
ENDCHAR

STARTCHAR Adiaeresis
ENCODING 196
SWIDTH 713 0
DWIDTH 7 0
BBX 7 9 0 0
BITMAP
28
00
10
10
28
28
7C
44
82
ENDCHAR

STARTCHAR Abolle
ENCODING 197
SWIDTH 713 0
DWIDTH 8 0
BBX 7 10 1 0
BITMAP
10
28
28
10
10
28
28
7C
44
82
ENDCHAR

STARTCHAR AEdiphthong
ENCODING 198
SWIDTH 984 0
DWIDTH 9 0
BBX 8 7 1 0
BITMAP
1F
28
28
4F
78
88
8F
ENDCHAR

STARTCHAR Ccedilla
ENCODING 199
SWIDTH 662 0
DWIDTH 7 0
BBX 6 9 1 -2
BITMAP
78
84
80
80
80
84
78
10
60
ENDCHAR

STARTCHAR Egrave
ENCODING 200
SWIDTH 604 0
DWIDTH 6 0
BBX 5 10 1 0
BITMAP
40
20
00
F8
80
80
F8
80
80
F8
ENDCHAR

STARTCHAR Eacute
ENCODING 201
SWIDTH 604 0
DWIDTH 6 0
BBX 5 10 1 0
BITMAP
10
20
00
F8
80
80
F8
80
80
F8
ENDCHAR

STARTCHAR Ecircumflex
ENCODING 202
SWIDTH 604 0
DWIDTH 6 0
BBX 5 10 1 0
BITMAP
20
50
00
F8
80
80
F8
80
80
F8
ENDCHAR

STARTCHAR Ediaeresis
ENCODING 203
SWIDTH 604 0
DWIDTH 6 0
BBX 5 9 1 0
BITMAP
50
00
F8
80
80
F8
80
80
F8
ENDCHAR

STARTCHAR Igrave
ENCODING 204
SWIDTH 263 0
DWIDTH 3 0
BBX 2 10 0 0
BITMAP
80
40
00
40
40
40
40
40
40
40
ENDCHAR

STARTCHAR Iacute
ENCODING 205
SWIDTH 263 0
DWIDTH 3 0
BBX 2 10 1 0
BITMAP
40
80
00
80
80
80
80
80
80
80
ENDCHAR

STARTCHAR Icircumflex
ENCODING 206
SWIDTH 263 0
DWIDTH 3 0
BBX 3 10 0 0
BITMAP
40
A0
00
40
40
40
40
40
40
40
ENDCHAR

STARTCHAR Idiaeresis
ENCODING 207
SWIDTH 263 0
DWIDTH 3 0
BBX 3 9 0 0
BITMAP
A0
00
40
40
40
40
40
40
40
ENDCHAR

STARTCHAR Eth
ENCODING 208
SWIDTH 724 0
DWIDTH 7 0
BBX 7 7 0 0
BITMAP
7C
42
42
F2
42
42
7C
ENDCHAR

STARTCHAR Ntilde
ENCODING 209
SWIDTH 734 0
DWIDTH 7 0
BBX 6 10 1 0
BITMAP
64
98
00
84
C4
A4
94
94
8C
84
ENDCHAR

STARTCHAR Ograve
ENCODING 210
SWIDTH 771 0
DWIDTH 7 0
BBX 6 10 1 0
BITMAP
20
10
00
78
84
84
84
84
84
78
ENDCHAR

STARTCHAR Oacute
ENCODING 211
SWIDTH 771 0
DWIDTH 7 0
BBX 6 10 1 0
BITMAP
10
20
00
78
84
84
84
84
84
78
ENDCHAR

STARTCHAR Ocircumflex
ENCODING 212
SWIDTH 771 0
DWIDTH 7 0
BBX 6 10 1 0
BITMAP
30
48
00
78
84
84
84
84
84
78
ENDCHAR

STARTCHAR Otilde
ENCODING 213
SWIDTH 771 0
DWIDTH 7 0
BBX 6 10 1 0
BITMAP
64
98
00
78
84
84
84
84
84
78
ENDCHAR

STARTCHAR Odiaeresis
ENCODING 214
SWIDTH 771 0
DWIDTH 7 0
BBX 6 9 1 0
BITMAP
48
00
78
84
84
84
84
84
78
ENDCHAR

STARTCHAR Multiplication
ENCODING 215
SWIDTH 833 0
DWIDTH 8 0
BBX 5 13 2 -3
BITMAP
00
00
00
00
88
50
20
50
88
00
00
00
00
ENDCHAR

STARTCHAR Ooblique
ENCODING 216
SWIDTH 771 0
DWIDTH 7 0
BBX 6 9 1 -1
BITMAP
04
78
8C
94
94
A4
C4
78
80
ENDCHAR

STARTCHAR Ugrave
ENCODING 217
SWIDTH 728 0
DWIDTH 7 0
BBX 6 10 1 0
BITMAP
20
10
00
84
84
84
84
84
84
78
ENDCHAR

STARTCHAR Uacute
ENCODING 218
SWIDTH 728 0
DWIDTH 7 0
BBX 6 10 1 0
BITMAP
10
20
00
84
84
84
84
84
84
78
ENDCHAR

STARTCHAR Ucircumflex
ENCODING 219
SWIDTH 728 0
DWIDTH 7 0
BBX 6 10 1 0
BITMAP
30
48
00
84
84
84
84
84
84
78
ENDCHAR

STARTCHAR Udiaeresis
ENCODING 220
SWIDTH 728 0
DWIDTH 7 0
BBX 6 9 1 0
BITMAP
48
00
84
84
84
84
84
84
78
ENDCHAR

STARTCHAR Yacute
ENCODING 221
SWIDTH 657 0
DWIDTH 7 0
BBX 7 10 0 0
BITMAP
08
10
00
82
44
28
10
10
10
10
ENDCHAR

STARTCHAR Thorn
ENCODING 222
SWIDTH 603 0
DWIDTH 6 0
BBX 5 7 1 0
BITMAP
80
F0
88
88
F0
80
80
ENDCHAR

STARTCHAR EsZetLigature
ENCODING 223
SWIDTH 644 0
DWIDTH 6 0
BBX 5 7 1 0
BITMAP
60
90
90
A0
90
88
B0
ENDCHAR

STARTCHAR agrave
ENCODING 224
SWIDTH 531 0
DWIDTH 6 0
BBX 5 8 1 0
BITMAP
20
10
00
70
08
78
88
78
ENDCHAR

STARTCHAR aacute
ENCODING 225
SWIDTH 531 0
DWIDTH 6 0
BBX 5 8 1 0
BITMAP
10
20
00
70
08
78
88
78
ENDCHAR

STARTCHAR acircumflex
ENCODING 226
SWIDTH 531 0
DWIDTH 6 0
BBX 5 8 1 0
BITMAP
20
50
00
70
08
78
88
78
ENDCHAR

STARTCHAR atilde
ENCODING 227
SWIDTH 531 0
DWIDTH 6 0
BBX 5 8 1 0
BITMAP
68
90
00
70
08
78
88
78
ENDCHAR

STARTCHAR adiaeresis
ENCODING 228
SWIDTH 531 0
DWIDTH 6 0
BBX 5 7 1 0
BITMAP
50
00
70
08
78
88
78
ENDCHAR

STARTCHAR abolle
ENCODING 229
SWIDTH 531 0
DWIDTH 6 0
BBX 5 10 1 0
BITMAP
20
50
50
20
00
70
08
78
88
78
ENDCHAR

STARTCHAR aedihthong
ENCODING 230
SWIDTH 898 0
DWIDTH 10 0
BBX 9 5 1 0
BITMAP
7700
0880
7F80
8800
7780
ENDCHAR

STARTCHAR ccedilla
ENCODING 231
SWIDTH 516 0
DWIDTH 6 0
BBX 5 7 1 -2
BITMAP
70
88
80
80
78
20
C0
ENDCHAR

STARTCHAR egrave
ENCODING 232
SWIDTH 551 0
DWIDTH 6 0
BBX 5 8 1 0
BITMAP
40
20
00
70
88
F8
80
78
ENDCHAR

STARTCHAR eacute
ENCODING 233
SWIDTH 551 0
DWIDTH 6 0
BBX 5 8 1 0
BITMAP
10
20
00
70
88
F8
80
78
ENDCHAR

STARTCHAR ecircumflex
ENCODING 234
SWIDTH 551 0
DWIDTH 6 0
BBX 5 8 1 0
BITMAP
20
50
00
70
88
F8
80
78
ENDCHAR

STARTCHAR ediaeresis
ENCODING 235
SWIDTH 551 0
DWIDTH 6 0
BBX 5 7 1 0
BITMAP
50
00
70
88
F8
80
78
ENDCHAR

STARTCHAR igrave
ENCODING 236
SWIDTH 250 0
DWIDTH 3 0
BBX 2 8 0 0
BITMAP
80
40
00
40
40
40
40
40
ENDCHAR

STARTCHAR iacute
ENCODING 237
SWIDTH 250 0
DWIDTH 3 0
BBX 2 8 1 0
BITMAP
40
80
00
80
80
80
80
80
ENDCHAR

STARTCHAR icircumflex
ENCODING 238
SWIDTH 250 0
DWIDTH 3 0
BBX 3 8 0 0
BITMAP
40
A0
00
40
40
40
40
40
ENDCHAR

STARTCHAR idiaeresis
ENCODING 239
SWIDTH 250 0
DWIDTH 3 0
BBX 3 7 0 0
BITMAP
A0
00
40
40
40
40
40
ENDCHAR

STARTCHAR ethIcelandic
ENCODING 240
SWIDTH 602 0
DWIDTH 6 0
BBX 5 7 1 0
BITMAP
D8
20
D0
08
78
88
70
ENDCHAR

STARTCHAR ntilde
ENCODING 241
SWIDTH 588 0
DWIDTH 6 0
BBX 5 8 1 0
BITMAP
68
90
00
B0
C8
88
88
88
ENDCHAR

STARTCHAR ograve
ENCODING 242
SWIDTH 602 0
DWIDTH 6 0
BBX 5 8 1 0
BITMAP
40
20
00
70
88
88
88
70
ENDCHAR

STARTCHAR oacute
ENCODING 243
SWIDTH 602 0
DWIDTH 6 0
BBX 5 8 1 0
BITMAP
10
20
00
70
88
88
88
70
ENDCHAR

STARTCHAR ocircumflex
ENCODING 244
SWIDTH 602 0
DWIDTH 6 0
BBX 5 8 1 0
BITMAP
20
50
00
70
88
88
88
70
ENDCHAR

STARTCHAR otilde
ENCODING 245
SWIDTH 602 0
DWIDTH 6 0
BBX 5 8 1 0
BITMAP
68
90
00
70
88
88
88
70
ENDCHAR

STARTCHAR odiaeresis
ENCODING 246
SWIDTH 602 0
DWIDTH 6 0
BBX 5 7 1 0
BITMAP
50
00
70
88
88
88
70
ENDCHAR

STARTCHAR DivideSign
ENCODING 247
SWIDTH 331 0
DWIDTH 8 0
BBX 5 13 2 -3
BITMAP
00
00
00
20
20
00
F8
00
20
20
00
00
00
ENDCHAR

STARTCHAR ooblique
ENCODING 248
SWIDTH 602 0
DWIDTH 6 0
BBX 5 7 1 -1
BITMAP
08
70
98
A8
C8
70
80
ENDCHAR

STARTCHAR ugrave
ENCODING 249
SWIDTH 588 0
DWIDTH 6 0
BBX 5 8 1 0
BITMAP
40
20
00
88
88
88
98
68
ENDCHAR

STARTCHAR uacute
ENCODING 250
SWIDTH 588 0
DWIDTH 6 0
BBX 5 8 1 0
BITMAP
10
20
00
88
88
88
98
68
ENDCHAR

STARTCHAR ucircumflex
ENCODING 251
SWIDTH 588 0
DWIDTH 6 0
BBX 5 8 1 0
BITMAP
20
50
00
88
88
88
98
68
ENDCHAR

STARTCHAR udiaeresis
ENCODING 252
SWIDTH 588 0
DWIDTH 6 0
BBX 5 7 1 0
BITMAP
50
00
88
88
88
98
68
ENDCHAR

STARTCHAR yacute
ENCODING 253
SWIDTH 543 0
DWIDTH 6 0
BBX 5 10 1 -2
BITMAP
10
20
00
88
88
50
50
20
20
40
ENDCHAR

STARTCHAR thorn
ENCODING 254
SWIDTH 602 0
DWIDTH 6 0
BBX 5 9 1 -2
BITMAP
80
80
F0
88
88
88
F0
80
80
ENDCHAR

STARTCHAR ydiaeresis
ENCODING 255
SWIDTH 543 0
DWIDTH 6 0
BBX 5 9 1 -2
BITMAP
50
00
88
88
50
50
20
20
40
ENDCHAR
ENDFONT
